<svg width="49" height="52" viewBox="0 0 49 52" fill="none" xmlns="http://www.w3.org/2000/svg">
<path d="M40.7215 7.8H8.27856L11.1411 42.2297L24.5 46.28L37.8589 42.2297L40.7215 7.8Z" fill="#15FF00"/>
<path d="M24.4999 46.8C24.4543 46.8 24.4092 46.7932 24.3656 46.7797L11.0068 42.7289C10.8117 42.6696 10.6706 42.4892 10.653 42.2744L7.78991 7.84524C7.77815 7.70016 7.82372 7.55612 7.91682 7.44848C8.00992 7.34084 8.14075 7.28 8.27844 7.28H40.7218C40.859 7.28 40.9903 7.34136 41.083 7.449C41.1756 7.55664 41.2216 7.70068 41.2099 7.84576L38.3468 42.275C38.3292 42.4897 38.1885 42.6702 37.993 42.7294L24.6341 46.7802C24.5905 46.7932 24.5455 46.8 24.4999 46.8ZM11.5997 41.8278L24.4999 45.7392L37.4001 41.8278L40.1867 8.32H8.81303L11.5997 41.8278Z" fill="#15FF00"/>
<path d="M24.5 10.66V43.1408L35.1874 39.9006L37.5874 10.66H24.5Z" fill="#15FF00"/>
<path d="M33.1833 15.9011H24.5L24.01 17.68L24.5 19.9514H29.1756L28.8894 24.0022H24.5L24.01 26L24.5 28.0524H28.6983L28.4122 32.6097L24.5 34.0272L24.01 36.4L24.5 38.2803L32.0382 35.6476L32.706 24.0022L33.1833 15.9011Z" fill="#F8E5E5"/>
<path d="M24.5 15.9011V19.9514H16.0074L15.7212 15.9011H24.5ZM20.1106 24.0022L20.3012 28.0524H24.5V24.0022H20.1106ZM20.4923 30.0778H16.6757L16.9619 35.6476L24.5 38.2803V34.0272L20.5879 32.6097L20.4923 30.0778Z" fill="#F8E5E5"/>
<path d="M24.4999 16.1611C24.3646 16.1611 24.2549 16.0446 24.2549 15.9011V10.66C24.2549 10.5165 24.3646 10.4 24.4999 10.4H26.2149C26.3501 10.4 26.4599 10.5165 26.4599 10.66C26.4599 10.8035 26.3501 10.92 26.2149 10.92H24.7449V15.9011C24.7449 16.0446 24.6351 16.1611 24.4999 16.1611Z" fill="#15FF00"/>
<path d="M29.6449 10.92H27.6849C27.5497 10.92 27.4399 10.8035 27.4399 10.66C27.4399 10.5165 27.5497 10.4 27.6849 10.4H29.6449C29.7802 10.4 29.8899 10.5165 29.8899 10.66C29.8899 10.8035 29.7802 10.92 29.6449 10.92Z" fill="#15FF00"/>
<path d="M24.4999 43.4008C24.4475 43.4008 24.3955 43.3826 24.3524 43.3482C24.2907 43.2988 24.2549 43.2219 24.2549 43.1408V39.78C24.2549 39.6365 24.3646 39.52 24.4999 39.52C24.6351 39.52 24.7449 39.6365 24.7449 39.78V42.796L34.958 39.6994L37.3198 10.92H31.1149C30.9796 10.92 30.8699 10.8035 30.8699 10.66C30.8699 10.5165 30.9796 10.4 31.1149 10.4H37.5873C37.6564 10.4 37.7211 10.4307 37.7676 10.4842C37.8142 10.5378 37.8377 10.6101 37.8313 10.6824L35.4313 39.9225C35.4225 40.0301 35.3524 40.1201 35.2549 40.1502L24.5675 43.3909C24.545 43.3976 24.5224 43.4008 24.4999 43.4008Z" fill="#15FF00"/>
<path d="M24.4999 34.2872C24.3646 34.2872 24.2549 34.1708 24.2549 34.0272V29.6124C24.2549 29.4689 24.3646 29.3524 24.4999 29.3524C24.6351 29.3524 24.7449 29.4689 24.7449 29.6124V34.0272C24.7449 34.1708 24.6351 34.2872 24.4999 34.2872Z" fill="#15FF00"/>
<path d="M24.4999 24.2622C24.3646 24.2622 24.2549 24.1457 24.2549 24.0022V21.5119C24.2549 21.3684 24.3646 21.2519 24.4999 21.2519C24.6351 21.2519 24.7449 21.3684 24.7449 21.5119V24.0022C24.7449 24.1457 24.6351 24.2622 24.4999 24.2622Z" fill="#15FF00"/>
<path d="M24.5001 38.5403C24.4741 38.5403 24.4486 38.5362 24.4236 38.5273L16.8855 35.8946C16.7899 35.8613 16.7228 35.7687 16.7174 35.6616L16.4307 30.0924C16.4268 30.0212 16.4513 29.9515 16.4974 29.8995C16.5439 29.8475 16.6081 29.8184 16.6753 29.8184H20.4924C20.6242 29.8184 20.732 29.9286 20.7374 30.068L20.826 32.4215L24.5001 33.7527L28.179 32.4194L28.4367 28.313H20.3017C20.1709 28.313 20.0636 28.2043 20.0572 28.066L19.8661 24.0152C19.8627 23.9439 19.8867 23.8742 19.9333 23.8228C19.9798 23.7713 20.044 23.7422 20.1106 23.7422H28.6621L28.9115 20.2119H16.0074C15.879 20.2119 15.7727 20.1068 15.7629 19.9716L15.4767 15.9208C15.4718 15.8486 15.4953 15.7773 15.5419 15.7248C15.5884 15.6718 15.6536 15.6416 15.7212 15.6416H33.1834C33.251 15.6416 33.3156 15.6712 33.3617 15.7238C33.4078 15.7763 33.4323 15.8465 33.4279 15.9182L32.2827 35.6642C32.2764 35.7708 32.2102 35.8623 32.1147 35.8956L24.5765 38.5284C24.5515 38.5356 24.526 38.5403 24.5001 38.5403ZM17.1976 35.4562L24.5001 38.0063L31.8035 35.4552L32.9222 16.1611H15.9853L16.2347 19.6919H29.1756C29.2438 19.6919 29.3084 19.722 29.355 19.7751C29.4015 19.8281 29.4251 19.8988 29.4202 19.9711L29.134 24.0214C29.1242 24.1571 29.0179 24.2616 28.8895 24.2616H20.3679L20.5345 27.7924H28.6984C28.7665 27.7924 28.8312 27.8221 28.8772 27.8746C28.9233 27.9271 28.9473 27.9978 28.9429 28.0696L28.6567 32.6264C28.6499 32.7309 28.5852 32.8214 28.4911 32.8552L24.579 34.2732C24.528 34.2919 24.4716 34.2919 24.4212 34.2732L20.509 32.8552C20.413 32.8203 20.3473 32.7267 20.3429 32.6196L20.2572 30.3378H16.9345L17.1976 35.4562Z" fill="#15FF00"/>
</svg>
