<svg width="40" height="42" viewBox="0 0 40 42" fill="none" xmlns="http://www.w3.org/2000/svg">
<g clip-path="url(#clip0_18_179)">
<path d="M39.2448 19.1283L21.7798 0.792634C21.5407 0.541426 21.2568 0.34215 20.9443 0.20619C20.6318 0.0702306 20.2968 0.00025177 19.9586 0.00025177C19.6203 0.00025177 19.2854 0.0702306 18.9729 0.20619C18.6604 0.34215 18.3765 0.541426 18.1373 0.792634L14.5123 4.59888L19.1123 9.42888C19.6548 9.2344 20.2385 9.20397 20.7967 9.34108C21.3549 9.47818 21.8651 9.7773 22.2692 10.2043C22.6732 10.6313 22.9548 11.1689 23.0818 11.7559C23.2088 12.3429 23.176 12.9555 22.9873 13.5239L27.4198 18.1806C28.0756 17.9382 28.7905 17.9375 29.4467 18.1786C30.1029 18.4196 30.6614 18.8882 31.0302 19.507C31.3989 20.1259 31.556 20.8582 31.4755 21.5833C31.395 22.3084 31.0818 22.9831 30.5873 23.4963C30.0868 24.025 29.4269 24.355 28.7205 24.4296C28.014 24.5043 27.3047 24.3192 26.7139 23.9057C26.123 23.4923 25.6871 22.8763 25.4808 22.163C25.2744 21.4496 25.3103 20.6832 25.5823 19.9945L21.4498 15.6528V27.0794C22.078 27.4059 22.5806 27.9485 22.8739 28.6169C23.1672 29.2853 23.2334 30.0391 23.0616 30.7526C22.8898 31.466 22.4903 32.0961 21.9296 32.5378C21.369 32.9795 20.6812 33.2061 19.9807 33.1798C19.2803 33.1536 18.6096 32.876 18.0804 32.3935C17.5512 31.9109 17.1955 31.2525 17.0726 30.528C16.9497 29.8034 17.067 29.0566 17.405 28.4118C17.7429 27.7671 18.2811 27.2635 18.9298 26.9849V15.4533C18.5556 15.2922 18.2153 15.055 17.9288 14.7553C17.6422 14.4555 17.415 14.0992 17.2602 13.7068C17.1055 13.3144 17.0262 12.8938 17.027 12.469C17.0278 12.0443 17.1086 11.624 17.2648 11.2323L12.7323 6.47051L0.757336 19.0443C0.51809 19.2953 0.328303 19.5935 0.198818 19.9216C0.0693321 20.2497 0.00268555 20.6014 0.00268555 20.9566C0.00268555 21.3117 0.0693321 21.6634 0.198818 21.9916C0.328303 22.3197 0.51809 22.6178 0.757336 22.8689L18.2223 41.2071C18.4615 41.4583 18.7454 41.6576 19.0579 41.7936C19.3704 41.9295 19.7053 41.9995 20.0436 41.9995C20.3818 41.9995 20.7168 41.9295 21.0293 41.7936C21.3418 41.6576 21.6257 41.4583 21.8648 41.2071L39.2473 22.9555C39.4866 22.7044 39.6764 22.4063 39.8059 22.0782C39.9353 21.7501 40.002 21.3984 40.002 21.0432C40.002 20.688 39.9353 20.3363 39.8059 20.0082C39.6764 19.6801 39.4866 19.382 39.2473 19.1309" fill="#06FF0F"/>
</g>
<defs>
<clipPath id="clip0_18_179">
<rect width="40" height="42" fill="white"/>
</clipPath>
</defs>
</svg>
