<svg width="47" height="48" viewBox="0 0 49 48" fill="none" xmlns="http://www.w3.org/2000/svg">
<path d="M41.8541 5H7.14575L10.2083 39L24.4999 43L38.7916 39L41.8541 5Z" fill="#06FF0F"/>
<path d="M24.5 8V39.9L35.9333 36.7L38.4854 8H24.5Z" fill="#06FF0F"/>
<path d="M24.5 25V21H33.2792L32.5646 32.5L24.5 35.1V30.9L28.6854 29.5L28.9917 25H24.5ZM33.5854 17L33.8917 13H24.5V17H33.5854Z" fill="white"/>
<path d="M24.5 30.9V35.1L16.4355 32.5L16.0271 27H20.1105L20.3146 29.5L24.5 30.9ZM19.498 17H24.5V13H15.2104L15.925 25H24.5V21H19.8042L19.498 17Z" fill="#EEEEEE"/>
</svg>
